<svg id="visual" viewBox="0 0 900 600" width="900" height="600" xmlns="http://www.w3.org/2000/svg" xmlns:xlink="http://www.w3.org/1999/xlink" version="1.1"><g stroke-width="1" stroke-linejoin="bevel"><path d="M468 274L377 197L379 267Z" fill="#2e2c42" stroke="#2e2c42"></path><path d="M468 274L527 203L377 197Z" fill="#2f2e44" stroke="#2f2e44"></path><path d="M527 203L484 120L377 197Z" fill="#312f47" stroke="#312f47"></path><path d="M379 267L423 373L468 274Z" fill="#2a2537" stroke="#2a2537"></path><path d="M590 260L571 199L527 203Z" fill="#282335" stroke="#282335"></path><path d="M590 260L527 203L468 274Z" fill="#2f2e44" stroke="#2f2e44"></path><path d="M527 203L571 199L484 120Z" fill="#272132" stroke="#272132"></path><path d="M484 120L397 70L377 197Z" fill="#33334c" stroke="#33334c"></path><path d="M309 73L265 193L377 197Z" fill="#282335" stroke="#282335"></path><path d="M377 197L265 193L379 267Z" fill="#2f2e44" stroke="#2f2e44"></path><path d="M379 267L261 331L423 373Z" fill="#272132" stroke="#272132"></path><path d="M506 381L590 260L468 274Z" fill="#2d2a3f" stroke="#2d2a3f"></path><path d="M423 373L506 381L468 274Z" fill="#272132" stroke="#272132"></path><path d="M265 193L261 331L379 267Z" fill="#312f47" stroke="#312f47"></path><path d="M397 70L309 73L377 197Z" fill="#282335" stroke="#282335"></path><path d="M571 199L609 112L484 120Z" fill="#312f47" stroke="#312f47"></path><path d="M534 0L382 0L397 70Z" fill="#2d2a3f" stroke="#2d2a3f"></path><path d="M676 203L609 112L571 199Z" fill="#2f2e44" stroke="#2f2e44"></path><path d="M261 331L289 409L423 373Z" fill="#2d2a3f" stroke="#2d2a3f"></path><path d="M423 373L481 478L506 381Z" fill="#2e2c42" stroke="#2e2c42"></path><path d="M534 0L397 70L484 120Z" fill="#33334c" stroke="#33334c"></path><path d="M397 70L332 0L309 73Z" fill="#282335" stroke="#282335"></path><path d="M265 193L183 268L261 331Z" fill="#2b263a" stroke="#2b263a"></path><path d="M261 331L219 372L289 409Z" fill="#2b263a" stroke="#2b263a"></path><path d="M180 160L183 268L265 193Z" fill="#2f2e44" stroke="#2f2e44"></path><path d="M382 0L332 0L397 70Z" fill="#323149" stroke="#323149"></path><path d="M175 137L180 160L265 193Z" fill="#323149" stroke="#323149"></path><path d="M728 283L676 203L590 260Z" fill="#2a2537" stroke="#2a2537"></path><path d="M590 260L676 203L571 199Z" fill="#312f47" stroke="#312f47"></path><path d="M183 268L219 372L261 331Z" fill="#2b263a" stroke="#2b263a"></path><path d="M430 531L481 478L423 373Z" fill="#272132" stroke="#272132"></path><path d="M506 381L619 415L590 260Z" fill="#2c283c" stroke="#2c283c"></path><path d="M615 0L534 0L609 112Z" fill="#323149" stroke="#323149"></path><path d="M609 112L534 0L484 120Z" fill="#323149" stroke="#323149"></path><path d="M175 137L265 193L309 73Z" fill="#2f2e44" stroke="#2f2e44"></path><path d="M230 495L299 463L289 409Z" fill="#2e2c42" stroke="#2e2c42"></path><path d="M289 409L299 463L423 373Z" fill="#312f47" stroke="#312f47"></path><path d="M587 464L619 415L506 381Z" fill="#2d2a3f" stroke="#2d2a3f"></path><path d="M106 103L175 137L160 0Z" fill="#2a2537" stroke="#2a2537"></path><path d="M180 160L96 199L183 268Z" fill="#323149" stroke="#323149"></path><path d="M481 478L587 464L506 381Z" fill="#2a2537" stroke="#2a2537"></path><path d="M699 0L615 0L609 112Z" fill="#33334c" stroke="#33334c"></path><path d="M299 463L430 531L423 373Z" fill="#2d2a3f" stroke="#2d2a3f"></path><path d="M481 478L597 600L587 464Z" fill="#312f47" stroke="#312f47"></path><path d="M619 415L728 283L590 260Z" fill="#282335" stroke="#282335"></path><path d="M676 203L734 71L609 112Z" fill="#2c283c" stroke="#2c283c"></path><path d="M714 398L728 283L619 415Z" fill="#323149" stroke="#323149"></path><path d="M219 372L230 495L289 409Z" fill="#2f2e44" stroke="#2f2e44"></path><path d="M314 600L408 600L430 531Z" fill="#312f47" stroke="#312f47"></path><path d="M87 461L230 495L219 372Z" fill="#2d2a3f" stroke="#2d2a3f"></path><path d="M106 103L96 199L175 137Z" fill="#2c283c" stroke="#2c283c"></path><path d="M175 137L96 199L180 160Z" fill="#2f2e44" stroke="#2f2e44"></path><path d="M183 268L81 382L219 372Z" fill="#2e2c42" stroke="#2e2c42"></path><path d="M728 537L714 398L619 415Z" fill="#2d2a3f" stroke="#2d2a3f"></path><path d="M96 199L91 267L183 268Z" fill="#312f47" stroke="#312f47"></path><path d="M774 322L767 196L728 283Z" fill="#312f47" stroke="#312f47"></path><path d="M728 283L767 196L676 203Z" fill="#2f2e44" stroke="#2f2e44"></path><path d="M160 0L175 137L309 73Z" fill="#2f2e44" stroke="#2f2e44"></path><path d="M772 117L734 71L676 203Z" fill="#2c283c" stroke="#2c283c"></path><path d="M332 0L160 0L309 73Z" fill="#282335" stroke="#282335"></path><path d="M734 71L699 0L609 112Z" fill="#2c283c" stroke="#2c283c"></path><path d="M714 398L774 322L728 283Z" fill="#33334c" stroke="#33334c"></path><path d="M767 196L772 117L676 203Z" fill="#323149" stroke="#323149"></path><path d="M734 71L770 0L699 0Z" fill="#272132" stroke="#272132"></path><path d="M900 178L772 117L767 196Z" fill="#33334c" stroke="#33334c"></path><path d="M314 600L430 531L299 463Z" fill="#2b263a" stroke="#2b263a"></path><path d="M430 531L461 600L481 478Z" fill="#2a2537" stroke="#2a2537"></path><path d="M587 464L728 537L619 415Z" fill="#2d2a3f" stroke="#2d2a3f"></path><path d="M408 600L461 600L430 531Z" fill="#2b263a" stroke="#2b263a"></path><path d="M0 315L81 382L91 267Z" fill="#2d2a3f" stroke="#2d2a3f"></path><path d="M91 267L81 382L183 268Z" fill="#2c283c" stroke="#2c283c"></path><path d="M160 0L127 0L106 103Z" fill="#2b263a" stroke="#2b263a"></path><path d="M214 600L314 600L230 495Z" fill="#33334c" stroke="#33334c"></path><path d="M230 495L314 600L299 463Z" fill="#312f47" stroke="#312f47"></path><path d="M461 600L597 600L481 478Z" fill="#282335" stroke="#282335"></path><path d="M714 398L822 366L774 322Z" fill="#312f47" stroke="#312f47"></path><path d="M81 382L87 461L219 372Z" fill="#312f47" stroke="#312f47"></path><path d="M772 117L770 0L734 71Z" fill="#2a2537" stroke="#2a2537"></path><path d="M804 499L822 366L714 398Z" fill="#2d2a3f" stroke="#2d2a3f"></path><path d="M900 330L900 178L767 196Z" fill="#2c283c" stroke="#2c283c"></path><path d="M772 117L900 86L770 0Z" fill="#2c283c" stroke="#2c283c"></path><path d="M127 600L214 600L230 495Z" fill="#33334c" stroke="#33334c"></path><path d="M0 77L0 203L106 103Z" fill="#2d2a3f" stroke="#2d2a3f"></path><path d="M106 103L0 203L96 199Z" fill="#272132" stroke="#272132"></path><path d="M96 199L0 203L91 267Z" fill="#323149" stroke="#323149"></path><path d="M81 382L0 418L87 461Z" fill="#323149" stroke="#323149"></path><path d="M680 600L728 537L587 464Z" fill="#2f2e44" stroke="#2f2e44"></path><path d="M0 203L0 315L91 267Z" fill="#2b263a" stroke="#2b263a"></path><path d="M597 600L680 600L587 464Z" fill="#323149" stroke="#323149"></path><path d="M127 0L0 77L106 103Z" fill="#323149" stroke="#323149"></path><path d="M782 600L804 499L728 537Z" fill="#2f2e44" stroke="#2f2e44"></path><path d="M728 537L804 499L714 398Z" fill="#312f47" stroke="#312f47"></path><path d="M0 315L0 418L81 382Z" fill="#2a2537" stroke="#2a2537"></path><path d="M87 461L127 600L230 495Z" fill="#2f2e44" stroke="#2f2e44"></path><path d="M0 517L127 600L87 461Z" fill="#33334c" stroke="#33334c"></path><path d="M900 330L774 322L822 366Z" fill="#2c283c" stroke="#2c283c"></path><path d="M900 330L767 196L774 322Z" fill="#2b263a" stroke="#2b263a"></path><path d="M900 426L900 330L822 366Z" fill="#312f47" stroke="#312f47"></path><path d="M127 0L0 0L0 77Z" fill="#282335" stroke="#282335"></path><path d="M900 178L900 86L772 117Z" fill="#2d2a3f" stroke="#2d2a3f"></path><path d="M900 478L900 426L804 499Z" fill="#282335" stroke="#282335"></path><path d="M804 499L900 426L822 366Z" fill="#2d2a3f" stroke="#2d2a3f"></path><path d="M680 600L782 600L728 537Z" fill="#33334c" stroke="#33334c"></path><path d="M0 418L0 517L87 461Z" fill="#282335" stroke="#282335"></path><path d="M900 86L900 0L770 0Z" fill="#2c283c" stroke="#2c283c"></path><path d="M900 600L900 478L804 499Z" fill="#2f2e44" stroke="#2f2e44"></path><path d="M0 517L0 600L127 600Z" fill="#2e2c42" stroke="#2e2c42"></path><path d="M782 600L900 600L804 499Z" fill="#272132" stroke="#272132"></path></g></svg>