<svg id="visual" viewBox="0 0 900 600" width="900" height="600" xmlns="http://www.w3.org/2000/svg" xmlns:xlink="http://www.w3.org/1999/xlink" version="1.1"><g stroke-width="1" stroke-linejoin="bevel"><path d="M470 312L360.5 370L429 398Z" fill="#e0a1a1" stroke="#e0a1a1"></path><path d="M470 312L348.5 299L360.5 370Z" fill="#fcc5bf" stroke="#fcc5bf"></path><path d="M360.5 370L422 466L429 398Z" fill="#f8c0bb" stroke="#f8c0bb"></path><path d="M566.5 397L569.5 321L470 312Z" fill="#e7aaa8" stroke="#e7aaa8"></path><path d="M471 179L319.5 222L348.5 299Z" fill="#fcc5bf" stroke="#fcc5bf"></path><path d="M348.5 299L206 283L360.5 370Z" fill="#e3a6a4" stroke="#e3a6a4"></path><path d="M566.5 397L470 312L429 398Z" fill="#e0a1a1" stroke="#e0a1a1"></path><path d="M470 312L471 179L348.5 299Z" fill="#eaafac" stroke="#eaafac"></path><path d="M422 466L566.5 397L429 398Z" fill="#eaafac" stroke="#eaafac"></path><path d="M536.5 205L471 179L470 312Z" fill="#dc9d9d" stroke="#dc9d9d"></path><path d="M569.5 321L536.5 205L470 312Z" fill="#ffc9c3" stroke="#ffc9c3"></path><path d="M319.5 222L206 283L348.5 299Z" fill="#fcc5bf" stroke="#fcc5bf"></path><path d="M360.5 370L300.5 528L422 466Z" fill="#dc9d9d" stroke="#dc9d9d"></path><path d="M192 412L300.5 528L360.5 370Z" fill="#eeb3b0" stroke="#eeb3b0"></path><path d="M422 466L554.5 515L566.5 397Z" fill="#fcc5bf" stroke="#fcc5bf"></path><path d="M454 600L554.5 515L422 466Z" fill="#e0a1a1" stroke="#e0a1a1"></path><path d="M206 283L192 412L360.5 370Z" fill="#fcc5bf" stroke="#fcc5bf"></path><path d="M684 461L655 380L566.5 397Z" fill="#e0a1a1" stroke="#e0a1a1"></path><path d="M566.5 397L655 380L569.5 321Z" fill="#eaafac" stroke="#eaafac"></path><path d="M569.5 321L636 220L536.5 205Z" fill="#f1b7b4" stroke="#f1b7b4"></path><path d="M319.5 222L211 196L206 283Z" fill="#f8c0bb" stroke="#f8c0bb"></path><path d="M206 283L80.5 390L192 412Z" fill="#fcc5bf" stroke="#fcc5bf"></path><path d="M305.5 92L211 196L319.5 222Z" fill="#e7aaa8" stroke="#e7aaa8"></path><path d="M655 380L654 264L569.5 321Z" fill="#f8c0bb" stroke="#f8c0bb"></path><path d="M654 264L636 220L569.5 321Z" fill="#e7aaa8" stroke="#e7aaa8"></path><path d="M536.5 205L564.5 126L471 179Z" fill="#ffc9c3" stroke="#ffc9c3"></path><path d="M636 220L564.5 126L536.5 205Z" fill="#fcc5bf" stroke="#fcc5bf"></path><path d="M471 179L305.5 92L319.5 222Z" fill="#eaafac" stroke="#eaafac"></path><path d="M564.5 126L462 81L471 179Z" fill="#e0a1a1" stroke="#e0a1a1"></path><path d="M318.5 600L454 600L422 466Z" fill="#e3a6a4" stroke="#e3a6a4"></path><path d="M192 412L188 483L300.5 528Z" fill="#eeb3b0" stroke="#eeb3b0"></path><path d="M300.5 528L318.5 600L422 466Z" fill="#e7aaa8" stroke="#e7aaa8"></path><path d="M462 81L305.5 92L471 179Z" fill="#dc9d9d" stroke="#dc9d9d"></path><path d="M197 600L318.5 600L300.5 528Z" fill="#eeb3b0" stroke="#eeb3b0"></path><path d="M454 600L528.5 600L554.5 515Z" fill="#ffc9c3" stroke="#ffc9c3"></path><path d="M554.5 515L684 461L566.5 397Z" fill="#eaafac" stroke="#eaafac"></path><path d="M691 600L684 461L554.5 515Z" fill="#eaafac" stroke="#eaafac"></path><path d="M768.5 276L754.5 224L654 264Z" fill="#e3a6a4" stroke="#e3a6a4"></path><path d="M111.5 168L118.5 261L211 196Z" fill="#ffc9c3" stroke="#ffc9c3"></path><path d="M211 196L118.5 261L206 283Z" fill="#dc9d9d" stroke="#dc9d9d"></path><path d="M192 412L76.5 489L188 483Z" fill="#f8c0bb" stroke="#f8c0bb"></path><path d="M342.5 0L234 69L305.5 92Z" fill="#fcc5bf" stroke="#fcc5bf"></path><path d="M305.5 92L234 69L211 196Z" fill="#e7aaa8" stroke="#e7aaa8"></path><path d="M118.5 261L80.5 390L206 283Z" fill="#fcc5bf" stroke="#fcc5bf"></path><path d="M188 483L197 600L300.5 528Z" fill="#f1b7b4" stroke="#f1b7b4"></path><path d="M141.5 600L197 600L188 483Z" fill="#e3a6a4" stroke="#e3a6a4"></path><path d="M564.5 126L480 0L462 81Z" fill="#e3a6a4" stroke="#e3a6a4"></path><path d="M462 81L342.5 0L305.5 92Z" fill="#ffc9c3" stroke="#ffc9c3"></path><path d="M589.5 0L480 0L564.5 126Z" fill="#fcc5bf" stroke="#fcc5bf"></path><path d="M480 0L342.5 0L462 81Z" fill="#f8c0bb" stroke="#f8c0bb"></path><path d="M234 69L111.5 168L211 196Z" fill="#eeb3b0" stroke="#eeb3b0"></path><path d="M118.5 261L0 320L80.5 390Z" fill="#eaafac" stroke="#eaafac"></path><path d="M654 264L754.5 224L636 220Z" fill="#e3a6a4" stroke="#e3a6a4"></path><path d="M636 220L698 63L564.5 126Z" fill="#dc9d9d" stroke="#dc9d9d"></path><path d="M768.5 276L654 264L655 380Z" fill="#f8c0bb" stroke="#f8c0bb"></path><path d="M820.5 399L768.5 276L655 380Z" fill="#fcc5bf" stroke="#fcc5bf"></path><path d="M80.5 390L76.5 489L192 412Z" fill="#eaafac" stroke="#eaafac"></path><path d="M76.5 489L141.5 600L188 483Z" fill="#dc9d9d" stroke="#dc9d9d"></path><path d="M645 0L589.5 0L564.5 126Z" fill="#ffc9c3" stroke="#ffc9c3"></path><path d="M528.5 600L691 600L554.5 515Z" fill="#eeb3b0" stroke="#eeb3b0"></path><path d="M684 461L820.5 399L655 380Z" fill="#f5bcb7" stroke="#f5bcb7"></path><path d="M691 600L770.5 477L684 461Z" fill="#eeb3b0" stroke="#eeb3b0"></path><path d="M342.5 0L226 0L234 69Z" fill="#fcc5bf" stroke="#fcc5bf"></path><path d="M234 69L86.5 115L111.5 168Z" fill="#f1b7b4" stroke="#f1b7b4"></path><path d="M761.5 124L698 63L636 220Z" fill="#eeb3b0" stroke="#eeb3b0"></path><path d="M76.5 0L86.5 115L234 69Z" fill="#f1b7b4" stroke="#f1b7b4"></path><path d="M0 176L0 320L118.5 261Z" fill="#e7aaa8" stroke="#e7aaa8"></path><path d="M80.5 390L0 401L76.5 489Z" fill="#eaafac" stroke="#eaafac"></path><path d="M900 233L761.5 124L754.5 224Z" fill="#fcc5bf" stroke="#fcc5bf"></path><path d="M754.5 224L761.5 124L636 220Z" fill="#eeb3b0" stroke="#eeb3b0"></path><path d="M698 63L645 0L564.5 126Z" fill="#dc9d9d" stroke="#dc9d9d"></path><path d="M766.5 0L645 0L698 63Z" fill="#e7aaa8" stroke="#e7aaa8"></path><path d="M770.5 477L820.5 399L684 461Z" fill="#e0a1a1" stroke="#e0a1a1"></path><path d="M768.5 276L900 233L754.5 224Z" fill="#f8c0bb" stroke="#f8c0bb"></path><path d="M0 176L118.5 261L111.5 168Z" fill="#f8c0bb" stroke="#f8c0bb"></path><path d="M0 320L0 401L80.5 390Z" fill="#e0a1a1" stroke="#e0a1a1"></path><path d="M76.5 489L0 600L141.5 600Z" fill="#f5bcb7" stroke="#f5bcb7"></path><path d="M0 401L0 499L76.5 489Z" fill="#f5bcb7" stroke="#f5bcb7"></path><path d="M86.5 115L0 176L111.5 168Z" fill="#eaafac" stroke="#eaafac"></path><path d="M0 121L0 176L86.5 115Z" fill="#f1b7b4" stroke="#f1b7b4"></path><path d="M76.5 0L0 121L86.5 115Z" fill="#f1b7b4" stroke="#f1b7b4"></path><path d="M226 0L76.5 0L234 69Z" fill="#dc9d9d" stroke="#dc9d9d"></path><path d="M820.5 399L900 309L768.5 276Z" fill="#e3a6a4" stroke="#e3a6a4"></path><path d="M900 391L900 309L820.5 399Z" fill="#dc9d9d" stroke="#dc9d9d"></path><path d="M900 391L820.5 399L900 461Z" fill="#e0a1a1" stroke="#e0a1a1"></path><path d="M691 600L825.5 600L770.5 477Z" fill="#e3a6a4" stroke="#e3a6a4"></path><path d="M900 117L766.5 0L761.5 124Z" fill="#e0a1a1" stroke="#e0a1a1"></path><path d="M761.5 124L766.5 0L698 63Z" fill="#e3a6a4" stroke="#e3a6a4"></path><path d="M900 461L820.5 399L770.5 477Z" fill="#eeb3b0" stroke="#eeb3b0"></path><path d="M0 499L0 600L76.5 489Z" fill="#dc9d9d" stroke="#dc9d9d"></path><path d="M900 309L900 233L768.5 276Z" fill="#e0a1a1" stroke="#e0a1a1"></path><path d="M825.5 600L900 461L770.5 477Z" fill="#e7aaa8" stroke="#e7aaa8"></path><path d="M76.5 0L0 0L0 121Z" fill="#f8c0bb" stroke="#f8c0bb"></path><path d="M900 233L900 117L761.5 124Z" fill="#e7aaa8" stroke="#e7aaa8"></path><path d="M825.5 600L900 600L900 461Z" fill="#e0a1a1" stroke="#e0a1a1"></path><path d="M900 117L900 0L766.5 0Z" fill="#fcc5bf" stroke="#fcc5bf"></path></g></svg>