<svg id="visual" viewBox="0 0 540 960" width="540" height="960" xmlns="http://www.w3.org/2000/svg" xmlns:xlink="http://www.w3.org/1999/xlink" version="1.1"><g stroke-width="1" stroke-linejoin="bevel"><path d="M266 472L250 389L113 461Z" fill="#f8c0bb" stroke="#f8c0bb"></path><path d="M250 389L141 345L113 461Z" fill="#eaaeac" stroke="#eaaeac"></path><path d="M113 461L129 616L266 472Z" fill="#f5bcb8" stroke="#f5bcb8"></path><path d="M129 616L253 626L266 472Z" fill="#f2b9b5" stroke="#f2b9b5"></path><path d="M0 341L0 474L113 461Z" fill="#edb2af" stroke="#edb2af"></path><path d="M113 461L0 575L129 616Z" fill="#f5bcb8" stroke="#f5bcb8"></path><path d="M141 345L0 341L113 461Z" fill="#e7aba9" stroke="#e7aba9"></path><path d="M415 593L406 478L266 472Z" fill="#e4a7a6" stroke="#e4a7a6"></path><path d="M266 472L395 365L250 389Z" fill="#eaaeac" stroke="#eaaeac"></path><path d="M406 478L395 365L266 472Z" fill="#f0b5b2" stroke="#f0b5b2"></path><path d="M298 210L114 220L141 345Z" fill="#e7aba9" stroke="#e7aba9"></path><path d="M0 474L0 575L113 461Z" fill="#eaaeac" stroke="#eaaeac"></path><path d="M298 210L141 345L250 389Z" fill="#f8c0bb" stroke="#f8c0bb"></path><path d="M141 345L114 220L0 341Z" fill="#eaaeac" stroke="#eaaeac"></path><path d="M395 365L298 210L250 389Z" fill="#f5bcb8" stroke="#f5bcb8"></path><path d="M149 721L262 691L253 626Z" fill="#e7aba9" stroke="#e7aba9"></path><path d="M253 626L415 593L266 472Z" fill="#f5bcb8" stroke="#f5bcb8"></path><path d="M149 721L253 626L129 616Z" fill="#f2b9b5" stroke="#f2b9b5"></path><path d="M262 691L415 593L253 626Z" fill="#e7aba9" stroke="#e7aba9"></path><path d="M0 691L149 721L129 616Z" fill="#eaaeac" stroke="#eaaeac"></path><path d="M114 220L0 235L0 341Z" fill="#f2b9b5" stroke="#f2b9b5"></path><path d="M395 365L412 259L298 210Z" fill="#f5bcb8" stroke="#f5bcb8"></path><path d="M540 334L412 259L395 365Z" fill="#f0b5b2" stroke="#f0b5b2"></path><path d="M540 476L395 365L406 478Z" fill="#f8c0bb" stroke="#f8c0bb"></path><path d="M0 575L0 691L129 616Z" fill="#e4a7a6" stroke="#e4a7a6"></path><path d="M243 114L121 133L114 220Z" fill="#e2a4a3" stroke="#e2a4a3"></path><path d="M114 220L0 142L0 235Z" fill="#e7aba9" stroke="#e7aba9"></path><path d="M243 114L114 220L298 210Z" fill="#f5bcb8" stroke="#f5bcb8"></path><path d="M416 108L243 114L298 210Z" fill="#e2a4a3" stroke="#e2a4a3"></path><path d="M540 575L540 476L406 478Z" fill="#f5bcb8" stroke="#f5bcb8"></path><path d="M262 691L401 732L415 593Z" fill="#e2a4a3" stroke="#e2a4a3"></path><path d="M415 593L540 575L406 478Z" fill="#f0b5b2" stroke="#f0b5b2"></path><path d="M291 859L401 732L262 691Z" fill="#dfa0a0" stroke="#dfa0a0"></path><path d="M0 0L0 142L121 133Z" fill="#eaaeac" stroke="#eaaeac"></path><path d="M121 133L0 142L114 220Z" fill="#dfa0a0" stroke="#dfa0a0"></path><path d="M540 476L540 334L395 365Z" fill="#eaaeac" stroke="#eaaeac"></path><path d="M412 259L416 108L298 210Z" fill="#eaaeac" stroke="#eaaeac"></path><path d="M540 706L540 575L415 593Z" fill="#e7aba9" stroke="#e7aba9"></path><path d="M0 691L119 814L149 721Z" fill="#e2a4a3" stroke="#e2a4a3"></path><path d="M149 721L291 859L262 691Z" fill="#eaaeac" stroke="#eaaeac"></path><path d="M540 213L416 108L412 259Z" fill="#f5bcb8" stroke="#f5bcb8"></path><path d="M540 334L540 213L412 259Z" fill="#f8c0bb" stroke="#f8c0bb"></path><path d="M119 814L291 859L149 721Z" fill="#edb2af" stroke="#edb2af"></path><path d="M401 732L540 706L415 593Z" fill="#f0b5b2" stroke="#f0b5b2"></path><path d="M0 691L0 835L119 814Z" fill="#e7aba9" stroke="#e7aba9"></path><path d="M119 814L164 960L291 859Z" fill="#dc9d9d" stroke="#dc9d9d"></path><path d="M427 844L540 706L401 732Z" fill="#e7aba9" stroke="#e7aba9"></path><path d="M283 0L114 0L243 114Z" fill="#e2a4a3" stroke="#e2a4a3"></path><path d="M243 114L114 0L121 133Z" fill="#edb2af" stroke="#edb2af"></path><path d="M416 108L283 0L243 114Z" fill="#f2b9b5" stroke="#f2b9b5"></path><path d="M291 859L427 844L401 732Z" fill="#f0b5b2" stroke="#f0b5b2"></path><path d="M114 0L0 0L121 133Z" fill="#e4a7a6" stroke="#e4a7a6"></path><path d="M540 0L384 0L416 108Z" fill="#eaaeac" stroke="#eaaeac"></path><path d="M416 108L384 0L283 0Z" fill="#e4a7a6" stroke="#e4a7a6"></path><path d="M540 213L540 95L416 108Z" fill="#f5bcb8" stroke="#f5bcb8"></path><path d="M0 960L164 960L119 814Z" fill="#f5bcb8" stroke="#f5bcb8"></path><path d="M291 859L422 960L427 844Z" fill="#eaaeac" stroke="#eaaeac"></path><path d="M164 960L275 960L291 859Z" fill="#e2a4a3" stroke="#e2a4a3"></path><path d="M422 960L540 851L427 844Z" fill="#f5bcb8" stroke="#f5bcb8"></path><path d="M427 844L540 851L540 706Z" fill="#dfa0a0" stroke="#dfa0a0"></path><path d="M0 835L0 960L119 814Z" fill="#eaaeac" stroke="#eaaeac"></path><path d="M540 95L540 0L416 108Z" fill="#dc9d9d" stroke="#dc9d9d"></path><path d="M275 960L422 960L291 859Z" fill="#dc9d9d" stroke="#dc9d9d"></path><path d="M422 960L540 960L540 851Z" fill="#dc9d9d" stroke="#dc9d9d"></path></g></svg>