<svg id="visual" viewBox="0 0 900 600" width="900" height="600" xmlns="http://www.w3.org/2000/svg" xmlns:xlink="http://www.w3.org/1999/xlink" version="1.1"><g stroke-width="1" stroke-linejoin="bevel"><path d="M473 296L472 212L418 281Z" fill="#04121e" stroke="#04121e"></path><path d="M472 212L403 224L418 281Z" fill="#191928" stroke="#191928"></path><path d="M473 296L573 223L472 212Z" fill="#201b2a" stroke="#201b2a"></path><path d="M473 296L574 296L573 223Z" fill="#191928" stroke="#191928"></path><path d="M573 223L509 121L472 212Z" fill="#1d1a29" stroke="#1d1a29"></path><path d="M472 212L397 118L403 224Z" fill="#04121e" stroke="#04121e"></path><path d="M509 121L397 118L472 212Z" fill="#1d1a29" stroke="#1d1a29"></path><path d="M473 296L572 376L574 296Z" fill="#131725" stroke="#131725"></path><path d="M509 432L572 376L473 296Z" fill="#131725" stroke="#131725"></path><path d="M397 118L301 178L403 224Z" fill="#081320" stroke="#081320"></path><path d="M403 224L288 315L418 281Z" fill="#04121e" stroke="#04121e"></path><path d="M301 178L288 315L403 224Z" fill="#131725" stroke="#131725"></path><path d="M379 435L509 432L473 296Z" fill="#161826" stroke="#161826"></path><path d="M379 435L473 296L418 281Z" fill="#191928" stroke="#191928"></path><path d="M382 0L338 104L397 118Z" fill="#0c1422" stroke="#0c1422"></path><path d="M397 118L338 104L301 178Z" fill="#191928" stroke="#191928"></path><path d="M306 401L379 435L418 281Z" fill="#00101c" stroke="#00101c"></path><path d="M288 315L306 401L418 281Z" fill="#0c1422" stroke="#0c1422"></path><path d="M674 113L620 126L712 187Z" fill="#081320" stroke="#081320"></path><path d="M573 223L620 126L509 121Z" fill="#101623" stroke="#101623"></path><path d="M509 121L526 0L397 118Z" fill="#101623" stroke="#101623"></path><path d="M620 126L573 223L712 187Z" fill="#161826" stroke="#161826"></path><path d="M183 119L205 230L301 178Z" fill="#101623" stroke="#101623"></path><path d="M301 178L205 230L288 315Z" fill="#04121e" stroke="#04121e"></path><path d="M288 315L200 332L306 401Z" fill="#081320" stroke="#081320"></path><path d="M712 187L573 223L712 327Z" fill="#191928" stroke="#191928"></path><path d="M620 126L526 0L509 121Z" fill="#0c1422" stroke="#0c1422"></path><path d="M614 0L526 0L620 126Z" fill="#101623" stroke="#101623"></path><path d="M526 0L382 0L397 118Z" fill="#131725" stroke="#131725"></path><path d="M338 104L183 119L301 178Z" fill="#231c2b" stroke="#231c2b"></path><path d="M712 327L573 223L574 296Z" fill="#1d1a29" stroke="#1d1a29"></path><path d="M661 504L689 380L572 376Z" fill="#081320" stroke="#081320"></path><path d="M572 376L689 380L574 296Z" fill="#00101c" stroke="#00101c"></path><path d="M205 230L200 332L288 315Z" fill="#1d1a29" stroke="#1d1a29"></path><path d="M689 380L712 327L574 296Z" fill="#161826" stroke="#161826"></path><path d="M327 536L379 435L306 401Z" fill="#131725" stroke="#131725"></path><path d="M327 536L417 520L379 435Z" fill="#201b2a" stroke="#201b2a"></path><path d="M379 435L417 520L509 432Z" fill="#0c1422" stroke="#0c1422"></path><path d="M509 432L617 514L572 376Z" fill="#161826" stroke="#161826"></path><path d="M417 520L493 521L509 432Z" fill="#191928" stroke="#191928"></path><path d="M200 332L226 428L306 401Z" fill="#161826" stroke="#161826"></path><path d="M674 113L614 0L620 126Z" fill="#081320" stroke="#081320"></path><path d="M277 0L183 119L338 104Z" fill="#00101c" stroke="#00101c"></path><path d="M205 230L68 292L200 332Z" fill="#191928" stroke="#191928"></path><path d="M493 521L617 514L509 432Z" fill="#191928" stroke="#191928"></path><path d="M226 428L327 536L306 401Z" fill="#101623" stroke="#101623"></path><path d="M417 520L519 600L493 521Z" fill="#1d1a29" stroke="#1d1a29"></path><path d="M493 521L583 600L617 514Z" fill="#0c1422" stroke="#0c1422"></path><path d="M382 0L277 0L338 104Z" fill="#04121e" stroke="#04121e"></path><path d="M617 514L661 504L572 376Z" fill="#161826" stroke="#161826"></path><path d="M689 380L797 384L712 327Z" fill="#161826" stroke="#161826"></path><path d="M785 94L696 0L674 113Z" fill="#231c2b" stroke="#231c2b"></path><path d="M674 113L696 0L614 0Z" fill="#081320" stroke="#081320"></path><path d="M375 600L519 600L417 520Z" fill="#131725" stroke="#131725"></path><path d="M617 514L690 600L661 504Z" fill="#00101c" stroke="#00101c"></path><path d="M296 600L375 600L327 536Z" fill="#1d1a29" stroke="#1d1a29"></path><path d="M327 536L375 600L417 520Z" fill="#1d1a29" stroke="#1d1a29"></path><path d="M226 428L219 520L327 536Z" fill="#231c2b" stroke="#231c2b"></path><path d="M101 520L219 520L226 428Z" fill="#081320" stroke="#081320"></path><path d="M277 0L196 0L183 119Z" fill="#131725" stroke="#131725"></path><path d="M661 504L797 384L689 380Z" fill="#101623" stroke="#101623"></path><path d="M839 335L831 166L712 187Z" fill="#191928" stroke="#191928"></path><path d="M712 187L785 94L674 113Z" fill="#0c1422" stroke="#0c1422"></path><path d="M831 166L785 94L712 187Z" fill="#04121e" stroke="#04121e"></path><path d="M519 600L583 600L493 521Z" fill="#191928" stroke="#191928"></path><path d="M661 504L839 537L797 384Z" fill="#201b2a" stroke="#201b2a"></path><path d="M70 92L91 161L183 119Z" fill="#131725" stroke="#131725"></path><path d="M183 119L91 161L205 230Z" fill="#161826" stroke="#161826"></path><path d="M200 332L82 438L226 428Z" fill="#191928" stroke="#191928"></path><path d="M219 520L296 600L327 536Z" fill="#1d1a29" stroke="#1d1a29"></path><path d="M839 335L712 187L712 327Z" fill="#131725" stroke="#131725"></path><path d="M91 161L68 292L205 230Z" fill="#081320" stroke="#081320"></path><path d="M797 384L839 335L712 327Z" fill="#101623" stroke="#101623"></path><path d="M101 520L230 600L219 520Z" fill="#201b2a" stroke="#201b2a"></path><path d="M219 520L230 600L296 600Z" fill="#131725" stroke="#131725"></path><path d="M68 292L82 438L200 332Z" fill="#0c1422" stroke="#0c1422"></path><path d="M196 0L124 0L183 119Z" fill="#191928" stroke="#191928"></path><path d="M124 0L70 92L183 119Z" fill="#131725" stroke="#131725"></path><path d="M0 185L0 276L68 292Z" fill="#00101c" stroke="#00101c"></path><path d="M583 600L690 600L617 514Z" fill="#081320" stroke="#081320"></path><path d="M900 438L900 290L839 335Z" fill="#1d1a29" stroke="#1d1a29"></path><path d="M900 0L791 0L785 94Z" fill="#1d1a29" stroke="#1d1a29"></path><path d="M785 94L791 0L696 0Z" fill="#131725" stroke="#131725"></path><path d="M82 438L101 520L226 428Z" fill="#00101c" stroke="#00101c"></path><path d="M839 335L900 290L831 166Z" fill="#231c2b" stroke="#231c2b"></path><path d="M831 166L900 111L785 94Z" fill="#1d1a29" stroke="#1d1a29"></path><path d="M900 438L839 335L797 384Z" fill="#04121e" stroke="#04121e"></path><path d="M900 290L900 179L831 166Z" fill="#00101c" stroke="#00101c"></path><path d="M68 292L0 432L82 438Z" fill="#1d1a29" stroke="#1d1a29"></path><path d="M82 438L0 472L101 520Z" fill="#00101c" stroke="#00101c"></path><path d="M0 185L68 292L91 161Z" fill="#00101c" stroke="#00101c"></path><path d="M0 96L91 161L70 92Z" fill="#131725" stroke="#131725"></path><path d="M0 96L0 185L91 161Z" fill="#131725" stroke="#131725"></path><path d="M900 179L900 111L831 166Z" fill="#00101c" stroke="#00101c"></path><path d="M690 600L839 537L661 504Z" fill="#191928" stroke="#191928"></path><path d="M0 0L0 96L70 92Z" fill="#1d1a29" stroke="#1d1a29"></path><path d="M839 537L900 438L797 384Z" fill="#191928" stroke="#191928"></path><path d="M0 276L0 432L68 292Z" fill="#101623" stroke="#101623"></path><path d="M0 432L0 472L82 438Z" fill="#1d1a29" stroke="#1d1a29"></path><path d="M101 520L66 600L230 600Z" fill="#191928" stroke="#191928"></path><path d="M900 111L900 0L785 94Z" fill="#201b2a" stroke="#201b2a"></path><path d="M690 600L836 600L839 537Z" fill="#231c2b" stroke="#231c2b"></path><path d="M839 537L900 519L900 438Z" fill="#161826" stroke="#161826"></path><path d="M900 600L900 519L839 537Z" fill="#1d1a29" stroke="#1d1a29"></path><path d="M0 600L66 600L101 520Z" fill="#201b2a" stroke="#201b2a"></path><path d="M124 0L0 0L70 92Z" fill="#101623" stroke="#101623"></path><path d="M836 600L900 600L839 537Z" fill="#191928" stroke="#191928"></path><path d="M0 472L0 600L101 520Z" fill="#231c2b" stroke="#231c2b"></path></g></svg>